<?xml version="1.0" encoding="UTF-8" standalone="no"?>
<!DOCTYPE svg PUBLIC "-//W3C//DTD SVG 1.1//EN"
 "http://www.w3.org/Graphics/SVG/1.1/DTD/svg11.dtd">
<!-- Generated by graphviz version 2.40.1 (20161225.0304)
 -->
<!-- Title: snakemake_dag Pages: 1 -->
<svg width="255pt" height="692pt"
 viewBox="0.00 0.00 255.00 692.00" xmlns="http://www.w3.org/2000/svg" xmlns:xlink="http://www.w3.org/1999/xlink">
<g id="graph0" class="graph" transform="scale(1 1) rotate(0) translate(4 688)">
<title>snakemake_dag</title>
<polygon fill="#ffffff" stroke="transparent" points="-4,4 -4,-688 251,-688 251,4 -4,4"/>
<!-- 0 -->
<g id="node1" class="node">
<title>0</title>
<path fill="none" stroke="#5682d8" stroke-width="2" d="M123,-36C123,-36 93,-36 93,-36 87,-36 81,-30 81,-24 81,-24 81,-12 81,-12 81,-6 87,0 93,0 93,0 123,0 123,0 129,0 135,-6 135,-12 135,-12 135,-24 135,-24 135,-30 129,-36 123,-36"/>
<text text-anchor="middle" x="108" y="-15.5" font-family="sans" font-size="10.00" fill="#000000">all</text>
</g>
<!-- 1 -->
<g id="node2" class="node">
<title>1</title>
<path fill="none" stroke="#56a9d8" stroke-width="2" d="M87,-108C87,-108 51,-108 51,-108 45,-108 39,-102 39,-96 39,-96 39,-84 39,-84 39,-78 45,-72 51,-72 51,-72 87,-72 87,-72 93,-72 99,-78 99,-84 99,-84 99,-96 99,-96 99,-102 93,-108 87,-108"/>
<text text-anchor="middle" x="69" y="-87.5" font-family="sans" font-size="10.00" fill="#000000">annotate</text>
</g>
<!-- 1&#45;&gt;0 -->
<g id="edge1" class="edge">
<title>1&#45;&gt;0</title>
<path fill="none" stroke="#c0c0c0" stroke-width="2" d="M78.8413,-71.8314C83.1957,-63.7925 88.4098,-54.1666 93.2169,-45.2918"/>
<polygon fill="#c0c0c0" stroke="#c0c0c0" stroke-width="2" points="96.3408,-46.8732 98.0261,-36.4133 90.1857,-43.5392 96.3408,-46.8732"/>
</g>
<!-- 2 -->
<g id="node3" class="node">
<title>2</title>
<path fill="none" stroke="#56a9d8" stroke-width="2" d="M165,-108C165,-108 129,-108 129,-108 123,-108 117,-102 117,-96 117,-96 117,-84 117,-84 117,-78 123,-72 129,-72 129,-72 165,-72 165,-72 171,-72 177,-78 177,-84 177,-84 177,-96 177,-96 177,-102 171,-108 165,-108"/>
<text text-anchor="middle" x="147" y="-87.5" font-family="sans" font-size="10.00" fill="#000000">annotate</text>
</g>
<!-- 2&#45;&gt;0 -->
<g id="edge2" class="edge">
<title>2&#45;&gt;0</title>
<path fill="none" stroke="#c0c0c0" stroke-width="2" d="M137.1587,-71.8314C132.8043,-63.7925 127.5902,-54.1666 122.7831,-45.2918"/>
<polygon fill="#c0c0c0" stroke="#c0c0c0" stroke-width="2" points="125.8143,-43.5392 117.9739,-36.4133 119.6592,-46.8732 125.8143,-43.5392"/>
</g>
<!-- 3 -->
<g id="node4" class="node">
<title>3</title>
<path fill="none" stroke="#56d8a9" stroke-width="2" d="M84,-180C84,-180 54,-180 54,-180 48,-180 42,-174 42,-168 42,-168 42,-156 42,-156 42,-150 48,-144 54,-144 54,-144 84,-144 84,-144 90,-144 96,-150 96,-156 96,-156 96,-168 96,-168 96,-174 90,-180 84,-180"/>
<text text-anchor="middle" x="69" y="-159.5" font-family="sans" font-size="10.00" fill="#000000">remote</text>
</g>
<!-- 3&#45;&gt;1 -->
<g id="edge3" class="edge">
<title>3&#45;&gt;1</title>
<path fill="none" stroke="#c0c0c0" stroke-width="2" d="M69,-143.8314C69,-136.131 69,-126.9743 69,-118.4166"/>
<polygon fill="#c0c0c0" stroke="#c0c0c0" stroke-width="2" points="72.5001,-118.4132 69,-108.4133 65.5001,-118.4133 72.5001,-118.4132"/>
</g>
<!-- 4 -->
<g id="node5" class="node">
<title>4</title>
<path fill="none" stroke="#56d8a9" stroke-width="2" d="M162,-180C162,-180 132,-180 132,-180 126,-180 120,-174 120,-168 120,-168 120,-156 120,-156 120,-150 126,-144 132,-144 132,-144 162,-144 162,-144 168,-144 174,-150 174,-156 174,-156 174,-168 174,-168 174,-174 168,-180 162,-180"/>
<text text-anchor="middle" x="147" y="-159.5" font-family="sans" font-size="10.00" fill="#000000">remote</text>
</g>
<!-- 4&#45;&gt;2 -->
<g id="edge4" class="edge">
<title>4&#45;&gt;2</title>
<path fill="none" stroke="#c0c0c0" stroke-width="2" d="M147,-143.8314C147,-136.131 147,-126.9743 147,-118.4166"/>
<polygon fill="#c0c0c0" stroke="#c0c0c0" stroke-width="2" points="150.5001,-118.4132 147,-108.4133 143.5001,-118.4133 150.5001,-118.4132"/>
</g>
<!-- 5 -->
<g id="node6" class="node">
<title>5</title>
<path fill="none" stroke="#d88556" stroke-width="2" d="M84,-252C84,-252 54,-252 54,-252 48,-252 42,-246 42,-240 42,-240 42,-228 42,-228 42,-222 48,-216 54,-216 54,-216 84,-216 84,-216 90,-216 96,-222 96,-228 96,-228 96,-240 96,-240 96,-246 90,-252 84,-252"/>
<text text-anchor="middle" x="69" y="-231.5" font-family="sans" font-size="10.00" fill="#000000">predict</text>
</g>
<!-- 5&#45;&gt;3 -->
<g id="edge5" class="edge">
<title>5&#45;&gt;3</title>
<path fill="none" stroke="#c0c0c0" stroke-width="2" d="M69,-215.8314C69,-208.131 69,-198.9743 69,-190.4166"/>
<polygon fill="#c0c0c0" stroke="#c0c0c0" stroke-width="2" points="72.5001,-190.4132 69,-180.4133 65.5001,-190.4133 72.5001,-190.4132"/>
</g>
<!-- 6 -->
<g id="node7" class="node">
<title>6</title>
<path fill="none" stroke="#d88556" stroke-width="2" d="M162,-252C162,-252 132,-252 132,-252 126,-252 120,-246 120,-240 120,-240 120,-228 120,-228 120,-222 126,-216 132,-216 132,-216 162,-216 162,-216 168,-216 174,-222 174,-228 174,-228 174,-240 174,-240 174,-246 168,-252 162,-252"/>
<text text-anchor="middle" x="147" y="-231.5" font-family="sans" font-size="10.00" fill="#000000">predict</text>
</g>
<!-- 6&#45;&gt;4 -->
<g id="edge6" class="edge">
<title>6&#45;&gt;4</title>
<path fill="none" stroke="#c0c0c0" stroke-width="2" d="M147,-215.8314C147,-208.131 147,-198.9743 147,-190.4166"/>
<polygon fill="#c0c0c0" stroke="#c0c0c0" stroke-width="2" points="150.5001,-190.4132 147,-180.4133 143.5001,-190.4133 150.5001,-190.4132"/>
</g>
<!-- 7 -->
<g id="node8" class="node">
<title>7</title>
<path fill="none" stroke="#80d856" stroke-width="2" d="M90,-324C90,-324 52,-324 52,-324 46,-324 40,-318 40,-312 40,-312 40,-300 40,-300 40,-294 46,-288 52,-288 52,-288 90,-288 90,-288 96,-288 102,-294 102,-300 102,-300 102,-312 102,-312 102,-318 96,-324 90,-324"/>
<text text-anchor="middle" x="71" y="-303.5" font-family="sans" font-size="10.00" fill="#000000">sort_bam</text>
</g>
<!-- 7&#45;&gt;5 -->
<g id="edge7" class="edge">
<title>7&#45;&gt;5</title>
<path fill="none" stroke="#c0c0c0" stroke-width="2" d="M70.4953,-287.8314C70.2814,-280.131 70.0271,-270.9743 69.7894,-262.4166"/>
<polygon fill="#c0c0c0" stroke="#c0c0c0" stroke-width="2" points="73.2879,-262.3122 69.5115,-252.4133 66.2906,-262.5066 73.2879,-262.3122"/>
</g>
<!-- 8 -->
<g id="node9" class="node">
<title>8</title>
<path fill="none" stroke="#56d882" stroke-width="2" d="M84,-540C84,-540 12,-540 12,-540 6,-540 0,-534 0,-528 0,-528 0,-516 0,-516 0,-510 6,-504 12,-504 12,-504 84,-504 84,-504 90,-504 96,-510 96,-516 96,-516 96,-528 96,-528 96,-534 90,-540 84,-540"/>
<text text-anchor="middle" x="48" y="-519.5" font-family="sans" font-size="10.00" fill="#000000">mask_assembly</text>
</g>
<!-- 8&#45;&gt;5 -->
<g id="edge8" class="edge">
<title>8&#45;&gt;5</title>
<path fill="none" stroke="#c0c0c0" stroke-width="2" d="M39.4849,-503.9594C35.1021,-493.6742 30.2224,-480.3991 28,-468 13.8841,-389.2439 5.794,-363.9371 31,-288 34.2164,-278.3101 39.7941,-268.8266 45.7009,-260.5786"/>
<polygon fill="#c0c0c0" stroke="#c0c0c0" stroke-width="2" points="48.6026,-262.5457 51.8903,-252.4738 43.0393,-258.2971 48.6026,-262.5457"/>
</g>
<!-- 15 -->
<g id="node16" class="node">
<title>15</title>
<path fill="none" stroke="#d6d856" stroke-width="2" d="M99,-468C99,-468 49,-468 49,-468 43,-468 37,-462 37,-456 37,-456 37,-444 37,-444 37,-438 43,-432 49,-432 49,-432 99,-432 99,-432 105,-432 111,-438 111,-444 111,-444 111,-456 111,-456 111,-462 105,-468 99,-468"/>
<text text-anchor="middle" x="74" y="-447.5" font-family="sans" font-size="10.00" fill="#000000">index_STAR</text>
</g>
<!-- 8&#45;&gt;15 -->
<g id="edge19" class="edge">
<title>8&#45;&gt;15</title>
<path fill="none" stroke="#c0c0c0" stroke-width="2" d="M54.5609,-503.8314C57.4027,-495.9617 60.7937,-486.5712 63.9419,-477.8533"/>
<polygon fill="#c0c0c0" stroke="#c0c0c0" stroke-width="2" points="67.2462,-479.0076 67.3508,-468.4133 60.6623,-476.63 67.2462,-479.0076"/>
</g>
<!-- 9 -->
<g id="node10" class="node">
<title>9</title>
<path fill="none" stroke="#80d856" stroke-width="2" d="M225,-324C225,-324 187,-324 187,-324 181,-324 175,-318 175,-312 175,-312 175,-300 175,-300 175,-294 181,-288 187,-288 187,-288 225,-288 225,-288 231,-288 237,-294 237,-300 237,-300 237,-312 237,-312 237,-318 231,-324 225,-324"/>
<text text-anchor="middle" x="206" y="-303.5" font-family="sans" font-size="10.00" fill="#000000">sort_bam</text>
</g>
<!-- 9&#45;&gt;6 -->
<g id="edge9" class="edge">
<title>9&#45;&gt;6</title>
<path fill="none" stroke="#c0c0c0" stroke-width="2" d="M191.1118,-287.8314C184.247,-279.454 175.9699,-269.3531 168.4489,-260.1749"/>
<polygon fill="#c0c0c0" stroke="#c0c0c0" stroke-width="2" points="171.1341,-257.9297 162.0886,-252.4133 165.7197,-262.3665 171.1341,-257.9297"/>
</g>
<!-- 10 -->
<g id="node11" class="node">
<title>10</title>
<path fill="none" stroke="#56d882" stroke-width="2" d="M206,-540C206,-540 134,-540 134,-540 128,-540 122,-534 122,-528 122,-528 122,-516 122,-516 122,-510 128,-504 134,-504 134,-504 206,-504 206,-504 212,-504 218,-510 218,-516 218,-516 218,-528 218,-528 218,-534 212,-540 206,-540"/>
<text text-anchor="middle" x="170" y="-519.5" font-family="sans" font-size="10.00" fill="#000000">mask_assembly</text>
</g>
<!-- 10&#45;&gt;6 -->
<g id="edge10" class="edge">
<title>10&#45;&gt;6</title>
<path fill="none" stroke="#c0c0c0" stroke-width="2" d="M167.7706,-503.5233C166.5575,-493.1017 165.087,-479.8354 164,-468 157.1999,-393.9629 151.4544,-306.542 148.7166,-262.4624"/>
<polygon fill="#c0c0c0" stroke="#c0c0c0" stroke-width="2" points="152.1943,-261.9902 148.0866,-252.2241 145.2075,-262.4202 152.1943,-261.9902"/>
</g>
<!-- 17 -->
<g id="node18" class="node">
<title>17</title>
<path fill="none" stroke="#d6d856" stroke-width="2" d="M235,-468C235,-468 185,-468 185,-468 179,-468 173,-462 173,-456 173,-456 173,-444 173,-444 173,-438 179,-432 185,-432 185,-432 235,-432 235,-432 241,-432 247,-438 247,-444 247,-444 247,-456 247,-456 247,-462 241,-468 235,-468"/>
<text text-anchor="middle" x="210" y="-447.5" font-family="sans" font-size="10.00" fill="#000000">index_STAR</text>
</g>
<!-- 10&#45;&gt;17 -->
<g id="edge20" class="edge">
<title>10&#45;&gt;17</title>
<path fill="none" stroke="#c0c0c0" stroke-width="2" d="M180.0937,-503.8314C184.5597,-495.7925 189.9075,-486.1666 194.8379,-477.2918"/>
<polygon fill="#c0c0c0" stroke="#c0c0c0" stroke-width="2" points="197.9735,-478.8546 199.7704,-468.4133 191.8544,-475.4551 197.9735,-478.8546"/>
</g>
<!-- 11 -->
<g id="node12" class="node">
<title>11</title>
<path fill="none" stroke="#59d856" stroke-width="2" d="M97.5,-396C97.5,-396 50.5,-396 50.5,-396 44.5,-396 38.5,-390 38.5,-384 38.5,-384 38.5,-372 38.5,-372 38.5,-366 44.5,-360 50.5,-360 50.5,-360 97.5,-360 97.5,-360 103.5,-360 109.5,-366 109.5,-372 109.5,-372 109.5,-384 109.5,-384 109.5,-390 103.5,-396 97.5,-396"/>
<text text-anchor="middle" x="74" y="-375.5" font-family="sans" font-size="10.00" fill="#000000">align_STAR</text>
</g>
<!-- 11&#45;&gt;7 -->
<g id="edge11" class="edge">
<title>11&#45;&gt;7</title>
<path fill="none" stroke="#c0c0c0" stroke-width="2" d="M73.243,-359.8314C72.9221,-352.131 72.5406,-342.9743 72.184,-334.4166"/>
<polygon fill="#c0c0c0" stroke="#c0c0c0" stroke-width="2" points="75.6806,-334.2589 71.7672,-324.4133 68.6867,-334.5503 75.6806,-334.2589"/>
</g>
<!-- 12 -->
<g id="node13" class="node">
<title>12</title>
<path fill="none" stroke="#afd856" stroke-width="2" d="M80,-612C80,-612 16,-612 16,-612 10,-612 4,-606 4,-600 4,-600 4,-588 4,-588 4,-582 10,-576 16,-576 16,-576 80,-576 80,-576 86,-576 92,-582 92,-588 92,-588 92,-600 92,-600 92,-606 86,-612 80,-612"/>
<text text-anchor="middle" x="48" y="-591.5" font-family="sans" font-size="10.00" fill="#000000">sort_assembly</text>
</g>
<!-- 12&#45;&gt;8 -->
<g id="edge12" class="edge">
<title>12&#45;&gt;8</title>
<path fill="none" stroke="#c0c0c0" stroke-width="2" d="M48,-575.8314C48,-568.131 48,-558.9743 48,-550.4166"/>
<polygon fill="#c0c0c0" stroke="#c0c0c0" stroke-width="2" points="51.5001,-550.4132 48,-540.4133 44.5001,-550.4133 51.5001,-550.4132"/>
</g>
<!-- 13 -->
<g id="node14" class="node">
<title>13</title>
<path fill="none" stroke="#59d856" stroke-width="2" d="M232.5,-396C232.5,-396 185.5,-396 185.5,-396 179.5,-396 173.5,-390 173.5,-384 173.5,-384 173.5,-372 173.5,-372 173.5,-366 179.5,-360 185.5,-360 185.5,-360 232.5,-360 232.5,-360 238.5,-360 244.5,-366 244.5,-372 244.5,-372 244.5,-384 244.5,-384 244.5,-390 238.5,-396 232.5,-396"/>
<text text-anchor="middle" x="209" y="-375.5" font-family="sans" font-size="10.00" fill="#000000">align_STAR</text>
</g>
<!-- 13&#45;&gt;9 -->
<g id="edge13" class="edge">
<title>13&#45;&gt;9</title>
<path fill="none" stroke="#c0c0c0" stroke-width="2" d="M208.243,-359.8314C207.9221,-352.131 207.5406,-342.9743 207.184,-334.4166"/>
<polygon fill="#c0c0c0" stroke="#c0c0c0" stroke-width="2" points="210.6806,-334.2589 206.7672,-324.4133 203.6867,-334.5503 210.6806,-334.2589"/>
</g>
<!-- 14 -->
<g id="node15" class="node">
<title>14</title>
<path fill="none" stroke="#afd856" stroke-width="2" d="M202,-612C202,-612 138,-612 138,-612 132,-612 126,-606 126,-600 126,-600 126,-588 126,-588 126,-582 132,-576 138,-576 138,-576 202,-576 202,-576 208,-576 214,-582 214,-588 214,-588 214,-600 214,-600 214,-606 208,-612 202,-612"/>
<text text-anchor="middle" x="170" y="-591.5" font-family="sans" font-size="10.00" fill="#000000">sort_assembly</text>
</g>
<!-- 14&#45;&gt;10 -->
<g id="edge14" class="edge">
<title>14&#45;&gt;10</title>
<path fill="none" stroke="#c0c0c0" stroke-width="2" d="M170,-575.8314C170,-568.131 170,-558.9743 170,-550.4166"/>
<polygon fill="#c0c0c0" stroke="#c0c0c0" stroke-width="2" points="173.5001,-550.4132 170,-540.4133 166.5001,-550.4133 173.5001,-550.4132"/>
</g>
<!-- 15&#45;&gt;11 -->
<g id="edge15" class="edge">
<title>15&#45;&gt;11</title>
<path fill="none" stroke="#c0c0c0" stroke-width="2" d="M74,-431.8314C74,-424.131 74,-414.9743 74,-406.4166"/>
<polygon fill="#c0c0c0" stroke="#c0c0c0" stroke-width="2" points="77.5001,-406.4132 74,-396.4133 70.5001,-406.4133 77.5001,-406.4132"/>
</g>
<!-- 16 -->
<g id="node17" class="node">
<title>16</title>
<path fill="none" stroke="#56d8d8" stroke-width="2" d="M83.5,-684C83.5,-684 12.5,-684 12.5,-684 6.5,-684 .5,-678 .5,-672 .5,-672 .5,-660 .5,-660 .5,-654 6.5,-648 12.5,-648 12.5,-648 83.5,-648 83.5,-648 89.5,-648 95.5,-654 95.5,-660 95.5,-660 95.5,-672 95.5,-672 95.5,-678 89.5,-684 83.5,-684"/>
<text text-anchor="middle" x="48" y="-669" font-family="sans" font-size="10.00" fill="#000000">clean_assembly</text>
<text text-anchor="middle" x="48" y="-658" font-family="sans" font-size="10.00" fill="#000000">strain: Neff</text>
</g>
<!-- 16&#45;&gt;12 -->
<g id="edge16" class="edge">
<title>16&#45;&gt;12</title>
<path fill="none" stroke="#c0c0c0" stroke-width="2" d="M48,-647.8314C48,-640.131 48,-630.9743 48,-622.4166"/>
<polygon fill="#c0c0c0" stroke="#c0c0c0" stroke-width="2" points="51.5001,-622.4132 48,-612.4133 44.5001,-622.4133 51.5001,-622.4132"/>
</g>
<!-- 17&#45;&gt;13 -->
<g id="edge17" class="edge">
<title>17&#45;&gt;13</title>
<path fill="none" stroke="#c0c0c0" stroke-width="2" d="M209.7477,-431.8314C209.6407,-424.131 209.5135,-414.9743 209.3947,-406.4166"/>
<polygon fill="#c0c0c0" stroke="#c0c0c0" stroke-width="2" points="212.8944,-406.3637 209.2557,-396.4133 205.8951,-406.4609 212.8944,-406.3637"/>
</g>
<!-- 18 -->
<g id="node19" class="node">
<title>18</title>
<path fill="none" stroke="#56d8d8" stroke-width="2" d="M205.5,-684C205.5,-684 134.5,-684 134.5,-684 128.5,-684 122.5,-678 122.5,-672 122.5,-672 122.5,-660 122.5,-660 122.5,-654 128.5,-648 134.5,-648 134.5,-648 205.5,-648 205.5,-648 211.5,-648 217.5,-654 217.5,-660 217.5,-660 217.5,-672 217.5,-672 217.5,-678 211.5,-684 205.5,-684"/>
<text text-anchor="middle" x="170" y="-669" font-family="sans" font-size="10.00" fill="#000000">clean_assembly</text>
<text text-anchor="middle" x="170" y="-658" font-family="sans" font-size="10.00" fill="#000000">strain: C3</text>
</g>
<!-- 18&#45;&gt;14 -->
<g id="edge18" class="edge">
<title>18&#45;&gt;14</title>
<path fill="none" stroke="#c0c0c0" stroke-width="2" d="M170,-647.8314C170,-640.131 170,-630.9743 170,-622.4166"/>
<polygon fill="#c0c0c0" stroke="#c0c0c0" stroke-width="2" points="173.5001,-622.4132 170,-612.4133 166.5001,-622.4133 173.5001,-622.4132"/>
</g>
</g>
</svg>
