<?xml version="1.0" encoding="UTF-8" standalone="no"?>
<!DOCTYPE svg PUBLIC "-//W3C//DTD SVG 1.1//EN"
 "http://www.w3.org/Graphics/SVG/1.1/DTD/svg11.dtd">
<!-- Generated by graphviz version 2.47.0 (20210327.0129)
 -->
<!-- Title: snakemake_dag Pages: 1 -->
<svg width="341pt" height="764pt"
 viewBox="0.00 0.00 340.50 764.00" xmlns="http://www.w3.org/2000/svg" xmlns:xlink="http://www.w3.org/1999/xlink">
<g id="graph0" class="graph" transform="scale(1 1) rotate(0) translate(4 760)">
<title>snakemake_dag</title>
<polygon fill="white" stroke="transparent" points="-4,4 -4,-760 336.5,-760 336.5,4 -4,4"/>
<!-- 0 -->
<g id="node1" class="node">
<title>0</title>
<path fill="none" stroke="#9fd856" stroke-width="2" d="M126,-36C126,-36 96,-36 96,-36 90,-36 84,-30 84,-24 84,-24 84,-12 84,-12 84,-6 90,0 96,0 96,0 126,0 126,0 132,0 138,-6 138,-12 138,-12 138,-24 138,-24 138,-30 132,-36 126,-36"/>
<text text-anchor="middle" x="111" y="-15.5" font-family="sans" font-size="10.00">all</text>
</g>
<!-- 1 -->
<g id="node2" class="node">
<title>1</title>
<path fill="none" stroke="#d89556" stroke-width="2" d="M129,-108C129,-108 93,-108 93,-108 87,-108 81,-102 81,-96 81,-96 81,-84 81,-84 81,-78 87,-72 93,-72 93,-72 129,-72 129,-72 135,-72 141,-78 141,-84 141,-84 141,-96 141,-96 141,-102 135,-108 129,-108"/>
<text text-anchor="middle" x="111" y="-87.5" font-family="sans" font-size="10.00">annotate</text>
</g>
<!-- 1&#45;&gt;0 -->
<g id="edge1" class="edge">
<title>1&#45;&gt;0</title>
<path fill="none" stroke="grey" stroke-width="2" d="M111,-71.7C111,-63.98 111,-54.71 111,-46.11"/>
<polygon fill="grey" stroke="grey" stroke-width="2" points="114.5,-46.1 111,-36.1 107.5,-46.1 114.5,-46.1"/>
</g>
<!-- 2 -->
<g id="node3" class="node">
<title>2</title>
<path fill="none" stroke="#56d863" stroke-width="2" d="M42,-180C42,-180 12,-180 12,-180 6,-180 0,-174 0,-168 0,-168 0,-156 0,-156 0,-150 6,-144 12,-144 12,-144 42,-144 42,-144 48,-144 54,-150 54,-156 54,-156 54,-168 54,-168 54,-174 48,-180 42,-180"/>
<text text-anchor="middle" x="27" y="-159.5" font-family="sans" font-size="10.00">remote</text>
</g>
<!-- 2&#45;&gt;1 -->
<g id="edge4" class="edge">
<title>2&#45;&gt;1</title>
<path fill="none" stroke="grey" stroke-width="2" d="M47.76,-143.7C58.24,-134.97 71.11,-124.24 82.5,-114.75"/>
<polygon fill="grey" stroke="grey" stroke-width="2" points="85.03,-117.19 90.47,-108.1 80.55,-111.82 85.03,-117.19"/>
</g>
<!-- 3 -->
<g id="node4" class="node">
<title>3</title>
<path fill="none" stroke="#d87556" stroke-width="2" d="M84,-252C84,-252 54,-252 54,-252 48,-252 42,-246 42,-240 42,-240 42,-228 42,-228 42,-222 48,-216 54,-216 54,-216 84,-216 84,-216 90,-216 96,-222 96,-228 96,-228 96,-240 96,-240 96,-246 90,-252 84,-252"/>
<text text-anchor="middle" x="69" y="-231.5" font-family="sans" font-size="10.00">predict</text>
</g>
<!-- 3&#45;&gt;2 -->
<g id="edge5" class="edge">
<title>3&#45;&gt;2</title>
<path fill="none" stroke="grey" stroke-width="2" d="M58.62,-215.7C53.74,-207.56 47.81,-197.69 42.42,-188.7"/>
<polygon fill="grey" stroke="grey" stroke-width="2" points="45.41,-186.88 37.26,-180.1 39.41,-190.48 45.41,-186.88"/>
</g>
<!-- 12 -->
<g id="node13" class="node">
<title>12</title>
<path fill="none" stroke="#56b1d8" stroke-width="2" d="M137.5,-180C137.5,-180 84.5,-180 84.5,-180 78.5,-180 72.5,-174 72.5,-168 72.5,-168 72.5,-156 72.5,-156 72.5,-150 78.5,-144 84.5,-144 84.5,-144 137.5,-144 137.5,-144 143.5,-144 149.5,-150 149.5,-156 149.5,-156 149.5,-168 149.5,-168 149.5,-174 143.5,-180 137.5,-180"/>
<text text-anchor="middle" x="111" y="-159.5" font-family="sans" font-size="10.00">interproscan</text>
</g>
<!-- 3&#45;&gt;12 -->
<g id="edge15" class="edge">
<title>3&#45;&gt;12</title>
<path fill="none" stroke="grey" stroke-width="2" d="M79.38,-215.7C84.26,-207.56 90.19,-197.69 95.58,-188.7"/>
<polygon fill="grey" stroke="grey" stroke-width="2" points="98.59,-190.48 100.74,-180.1 92.59,-186.88 98.59,-190.48"/>
</g>
<!-- 4 -->
<g id="node5" class="node">
<title>4</title>
<path fill="none" stroke="#d85656" stroke-width="2" d="M121,-324C121,-324 83,-324 83,-324 77,-324 71,-318 71,-312 71,-312 71,-300 71,-300 71,-294 77,-288 83,-288 83,-288 121,-288 121,-288 127,-288 133,-294 133,-300 133,-300 133,-312 133,-312 133,-318 127,-324 121,-324"/>
<text text-anchor="middle" x="102" y="-303.5" font-family="sans" font-size="10.00">sort_bam</text>
</g>
<!-- 4&#45;&gt;3 -->
<g id="edge6" class="edge">
<title>4&#45;&gt;3</title>
<path fill="none" stroke="grey" stroke-width="2" d="M93.84,-287.7C90.09,-279.73 85.55,-270.1 81.38,-261.26"/>
<polygon fill="grey" stroke="grey" stroke-width="2" points="84.49,-259.66 77.06,-252.1 78.16,-262.64 84.49,-259.66"/>
</g>
<!-- 5 -->
<g id="node6" class="node">
<title>5</title>
<path fill="none" stroke="#68d856" stroke-width="2" d="M128.5,-396C128.5,-396 81.5,-396 81.5,-396 75.5,-396 69.5,-390 69.5,-384 69.5,-384 69.5,-372 69.5,-372 69.5,-366 75.5,-360 81.5,-360 81.5,-360 128.5,-360 128.5,-360 134.5,-360 140.5,-366 140.5,-372 140.5,-372 140.5,-384 140.5,-384 140.5,-390 134.5,-396 128.5,-396"/>
<text text-anchor="middle" x="105" y="-375.5" font-family="sans" font-size="10.00">align_STAR</text>
</g>
<!-- 5&#45;&gt;4 -->
<g id="edge8" class="edge">
<title>5&#45;&gt;4</title>
<path fill="none" stroke="grey" stroke-width="2" d="M104.26,-359.7C103.93,-351.98 103.53,-342.71 103.16,-334.11"/>
<polygon fill="grey" stroke="grey" stroke-width="2" points="106.66,-333.95 102.73,-324.1 99.66,-334.25 106.66,-333.95"/>
</g>
<!-- 6 -->
<g id="node7" class="node">
<title>6</title>
<path fill="none" stroke="#56d0d8" stroke-width="2" d="M130,-468C130,-468 80,-468 80,-468 74,-468 68,-462 68,-456 68,-456 68,-444 68,-444 68,-438 74,-432 80,-432 80,-432 130,-432 130,-432 136,-432 142,-438 142,-444 142,-444 142,-456 142,-456 142,-462 136,-468 130,-468"/>
<text text-anchor="middle" x="105" y="-447.5" font-family="sans" font-size="10.00">index_STAR</text>
</g>
<!-- 6&#45;&gt;5 -->
<g id="edge9" class="edge">
<title>6&#45;&gt;5</title>
<path fill="none" stroke="grey" stroke-width="2" d="M105,-431.7C105,-423.98 105,-414.71 105,-406.11"/>
<polygon fill="grey" stroke="grey" stroke-width="2" points="108.5,-406.1 105,-396.1 101.5,-406.1 108.5,-406.1"/>
</g>
<!-- 7 -->
<g id="node8" class="node">
<title>7</title>
<path fill="none" stroke="#56d882" stroke-width="2" d="M108,-540C108,-540 36,-540 36,-540 30,-540 24,-534 24,-528 24,-528 24,-516 24,-516 24,-510 30,-504 36,-504 36,-504 108,-504 108,-504 114,-504 120,-510 120,-516 120,-516 120,-528 120,-528 120,-534 114,-540 108,-540"/>
<text text-anchor="middle" x="72" y="-519.5" font-family="sans" font-size="10.00">mask_assembly</text>
</g>
<!-- 7&#45;&gt;3 -->
<g id="edge7" class="edge">
<title>7&#45;&gt;3</title>
<path fill="none" stroke="grey" stroke-width="2" d="M66.59,-503.53C63.7,-493.29 60.45,-480.04 59,-468 50.04,-393.89 59.18,-305.67 64.99,-262.11"/>
<polygon fill="grey" stroke="grey" stroke-width="2" points="68.48,-262.41 66.38,-252.03 61.54,-261.46 68.48,-262.41"/>
</g>
<!-- 7&#45;&gt;6 -->
<g id="edge11" class="edge">
<title>7&#45;&gt;6</title>
<path fill="none" stroke="grey" stroke-width="2" d="M80.16,-503.7C83.91,-495.73 88.45,-486.1 92.62,-477.26"/>
<polygon fill="grey" stroke="grey" stroke-width="2" points="95.84,-478.64 96.94,-468.1 89.51,-475.66 95.84,-478.64"/>
</g>
<!-- 8 -->
<g id="node9" class="node">
<title>8</title>
<path fill="none" stroke="#d8d356" stroke-width="2" d="M104,-612C104,-612 40,-612 40,-612 34,-612 28,-606 28,-600 28,-600 28,-588 28,-588 28,-582 34,-576 40,-576 40,-576 104,-576 104,-576 110,-576 116,-582 116,-588 116,-588 116,-600 116,-600 116,-606 110,-612 104,-612"/>
<text text-anchor="middle" x="72" y="-591.5" font-family="sans" font-size="10.00">sort_assembly</text>
</g>
<!-- 8&#45;&gt;7 -->
<g id="edge12" class="edge">
<title>8&#45;&gt;7</title>
<path fill="none" stroke="grey" stroke-width="2" d="M72,-575.7C72,-567.98 72,-558.71 72,-550.11"/>
<polygon fill="grey" stroke="grey" stroke-width="2" points="75.5,-550.1 72,-540.1 68.5,-550.1 75.5,-550.1"/>
</g>
<!-- 9 -->
<g id="node10" class="node">
<title>9</title>
<path fill="none" stroke="#5692d8" stroke-width="2" d="M107.5,-684C107.5,-684 36.5,-684 36.5,-684 30.5,-684 24.5,-678 24.5,-672 24.5,-672 24.5,-660 24.5,-660 24.5,-654 30.5,-648 36.5,-648 36.5,-648 107.5,-648 107.5,-648 113.5,-648 119.5,-654 119.5,-660 119.5,-660 119.5,-672 119.5,-672 119.5,-678 113.5,-684 107.5,-684"/>
<text text-anchor="middle" x="72" y="-663.5" font-family="sans" font-size="10.00">clean_assembly</text>
</g>
<!-- 9&#45;&gt;8 -->
<g id="edge13" class="edge">
<title>9&#45;&gt;8</title>
<path fill="none" stroke="grey" stroke-width="2" d="M72,-647.7C72,-639.98 72,-630.71 72,-622.11"/>
<polygon fill="grey" stroke="grey" stroke-width="2" points="75.5,-622.1 72,-612.1 68.5,-622.1 75.5,-622.1"/>
</g>
<!-- 10 -->
<g id="node11" class="node">
<title>10</title>
<path fill="none" stroke="#bed856" stroke-width="2" d="M115,-756C115,-756 29,-756 29,-756 23,-756 17,-750 17,-744 17,-744 17,-732 17,-732 17,-726 23,-720 29,-720 29,-720 115,-720 115,-720 121,-720 127,-726 127,-732 127,-732 127,-744 127,-744 127,-750 121,-756 115,-756"/>
<text text-anchor="middle" x="72" y="-735.5" font-family="sans" font-size="10.00">get_zenodo_assets</text>
</g>
<!-- 10&#45;&gt;9 -->
<g id="edge14" class="edge">
<title>10&#45;&gt;9</title>
<path fill="none" stroke="grey" stroke-width="2" d="M72,-719.7C72,-711.98 72,-702.71 72,-694.11"/>
<polygon fill="grey" stroke="grey" stroke-width="2" points="75.5,-694.1 72,-684.1 68.5,-694.1 75.5,-694.1"/>
</g>
<!-- 11 -->
<g id="node12" class="node">
<title>11</title>
<path fill="none" stroke="#88d856" stroke-width="2" d="M209.5,-468C209.5,-468 172.5,-468 172.5,-468 166.5,-468 160.5,-462 160.5,-456 160.5,-456 160.5,-444 160.5,-444 160.5,-438 166.5,-432 172.5,-432 172.5,-432 209.5,-432 209.5,-432 215.5,-432 221.5,-438 221.5,-444 221.5,-444 221.5,-456 221.5,-456 221.5,-462 215.5,-468 209.5,-468"/>
<text text-anchor="middle" x="191" y="-447.5" font-family="sans" font-size="10.00">sra_dl_fq</text>
</g>
<!-- 11&#45;&gt;5 -->
<g id="edge10" class="edge">
<title>11&#45;&gt;5</title>
<path fill="none" stroke="grey" stroke-width="2" d="M169.74,-431.7C158.91,-422.88 145.58,-412.03 133.84,-402.47"/>
<polygon fill="grey" stroke="grey" stroke-width="2" points="135.98,-399.7 126.01,-396.1 131.56,-405.13 135.98,-399.7"/>
</g>
<!-- 12&#45;&gt;1 -->
<g id="edge3" class="edge">
<title>12&#45;&gt;1</title>
<path fill="none" stroke="grey" stroke-width="2" d="M111,-143.7C111,-135.98 111,-126.71 111,-118.11"/>
<polygon fill="grey" stroke="grey" stroke-width="2" points="114.5,-118.1 111,-108.1 107.5,-118.1 114.5,-118.1"/>
</g>
<!-- 13 -->
<g id="node14" class="node">
<title>13</title>
<path fill="none" stroke="#56d8a2" stroke-width="2" d="M320.5,-180C320.5,-180 179.5,-180 179.5,-180 173.5,-180 167.5,-174 167.5,-168 167.5,-168 167.5,-156 167.5,-156 167.5,-150 173.5,-144 179.5,-144 179.5,-144 320.5,-144 320.5,-144 326.5,-144 332.5,-150 332.5,-156 332.5,-156 332.5,-168 332.5,-168 332.5,-174 326.5,-180 320.5,-180"/>
<text text-anchor="middle" x="250" y="-159.5" font-family="sans" font-size="10.00">download_eggnog_mapper_db</text>
</g>
<!-- 13&#45;&gt;1 -->
<g id="edge2" class="edge">
<title>13&#45;&gt;1</title>
<path fill="none" stroke="grey" stroke-width="2" d="M216,-143.88C196.2,-133.91 171.16,-121.29 150.49,-110.89"/>
<polygon fill="grey" stroke="grey" stroke-width="2" points="151.85,-107.65 141.34,-106.28 148.7,-113.9 151.85,-107.65"/>
</g>
</g>
</svg>
